<svg width="130" height="44" viewBox="0 0 146 49" version="1.1" xmlns="http://www.w3.org/2000/svg" xmlns:xlink="http://www.w3.org/1999/xlink">
<title>Arrow</title>
<desc>Created using Figma</desc>
<g id="Canvas" transform="translate(476 359)">
<g id="Vector" filter="url(#filter0_d)">
<use xlink:href="#path0_fill" transform="translate(-470 -357)" fill="#15E617"/>
<use xlink:href="#path1_stroke" transform="translate(-470 -357)" fill="#FFF"/>
</g>
</g>
<defs>
<filter id="filter0_d" filterUnits="userSpaceOnUse" x="-476" y="-359" width="146" height="49" color-interpolation-filters="sRGB">
<feFlood flood-opacity="0" result="BackgroundImageFix"/>
<feColorMatrix in="SourceAlpha" type="matrix" values="0 0 0 0 0 0 0 0 0 0 0 0 0 0 0 0 0 0 255 0"/>
<feOffset dx="0" dy="4"/>
<feGaussianBlur stdDeviation="2"/>
<feColorMatrix type="matrix" values="0 0 0 0 0 0 0 0 0 0 0 0 0 0 0 0 0 0 0.25 0"/>
<feBlend mode="normal" in2="BackgroundImageFix" result="effect1_dropShadow"/>
<feBlend mode="normal" in="SourceGraphic" in2="effect1_dropShadow" result="shape"/>
</filter>
<path id="path0_fill" d="M 109 1.95915e-05L 0 1.95915e-05L 0 37L 109 37C 112 37.0001 134.5 23.5 134.5 18C 134.5 12.5 112 6.36725e-05 109 1.95915e-05Z"/>
<path id="path1_stroke" d="M 0 1.95915e-05L 0 -1.49998C -0.828427 -1.49998 -1.5 -0.828408 -1.5 1.95915e-05L 0 1.95915e-05ZM 109 1.95915e-05L 109 -1.49998L 109 -1.49998L 109 1.95915e-05ZM 109 37L 109 35.5L 109 35.5L 109 37ZM 0 37L -1.5 37C -1.5 37.8285 -0.828427 38.5 3.33067e-16 38.5L 0 37ZM 0 1.50002L 109 1.50002L 109 -1.49998L 0 -1.49998L 0 1.50002ZM 109 1.50002C 108.95 1.5063 109.111 1.50972 109.374 1.5855C 109.661 1.66584 109.987 1.77916 110.411 1.94503C 111.277 2.28262 112.341 2.76519 113.582 3.38239C 116.081 4.62317 119.106 6.31899 122.071 8.20355C 125.036 10.0873 127.841 12.0907 129.933 13.9809C 130.968 14.9135 131.749 15.7339 132.307 16.5202C 132.868 17.3035 133 17.784 133 18L 136 18C 136 16.8409 135.429 15.7277 134.747 14.7747C 134.063 13.8246 133.063 12.7661 131.942 11.7534C 129.721 9.75304 126.714 7.60019 123.679 5.67147C 120.644 3.74355 117.482 1.97063 114.918 0.695797C 113.628 0.055184 112.442 -0.481779 111.503 -0.849271C 110.633 -1.18894 109.699 -1.49997 109 -1.49998L 109 1.50002ZM 133 18C 133 18.2233 132.862 18.7229 132.295 19.5406C 131.733 20.3567 130.945 21.219 129.907 22.1992C 127.811 24.1838 125.001 26.3121 122.034 28.3204C 119.068 30.3294 116.041 32.1483 113.543 33.4815C 112.302 34.1446 111.239 34.6635 110.375 35.0267C 109.541 35.3799 108.85 35.4831 109 35.5L 109 38.5C 109.415 38.5 109.851 38.3935 110.217 38.2822C 110.591 38.1677 111.059 37.9933 111.539 37.7917C 112.479 37.3952 113.667 36.8164 114.957 36.1279C 117.521 34.758 120.682 32.8581 123.716 30.8046C 126.749 28.7504 129.751 26.4724 131.968 24.3789C 133.086 23.32 134.08 22.2253 134.76 21.2503C 135.435 20.277 136 19.1517 136 18L 133 18ZM 109 35.5L 0 35.5L 0 38.5L 109 38.5L 109 35.5ZM 1.5 37L 1.5 1.95915e-05L -1.5 1.95915e-05L -1.5 37L 1.5 37Z"/>
</defs>
</svg>
